<?xml version="1.0" standalone="no"?>
<!DOCTYPE svg PUBLIC "-//W3C//DTD SVG 1.1//EN" "http://www.w3.org/Graphics/SVG/1.1/DTD/svg11.dtd" >
<svg xmlns="http://www.w3.org/2000/svg">
<metadata>
Created by FontPrep 20130207 at Mon Aug  5 19:55:39 2013
 By Zendy Wongso
Copyright (c) 2011, Jonathan Pinhorn (pinhorn.typedesign@gmail.com), with Reserved Font Names "Karla" and "Karla Tamil".
</metadata>
<defs>
<font id="c942a47632aeb474c2837bb3ad21cacb" >
  <font-face 
    font-family="Karla-Bold"
    font-weight="700"
    font-stretch="normal"
    units-per-em="2048"
    panose-1="2 0 8 3 0 0 0 0 0 0"
    ascent="1638"
    descent="-410"
    x-height="995"
    cap-height="1329"
    bbox="-156 -514 1999.02 1843"
    underline-thickness="102"
    underline-position="-102"
    unicode-range="U+0021-007E"
  />
<missing-glyph horiz-adv-x="500" 
 />
    <glyph glyph-name=".notdef" horiz-adv-x="500" 
 />
    <glyph glyph-name=".null" horiz-adv-x="0" 
 />
    <glyph glyph-name="nonmarkingreturn" horiz-adv-x="682" 
 />
    <glyph glyph-name="exclam" unicode="!" horiz-adv-x="600" 
d="M306 305q74 -1 124 -47t49 -116t-49 -114q-48 -46 -124 -46t-121 46q-46 46 -46 114t46.5 115.5t120.5 47.5zM176 1360h262l-28 -911h-207z" />
    <glyph glyph-name="quotedbl" unicode="&#x22;" horiz-adv-x="784" 
d="M719 1405l-33 -487h-178l-31 487h242zM307 1405l-33 -487h-178l-30 487h241z" />
    <glyph glyph-name="numbersign" unicode="#" horiz-adv-x="1388" 
d="M549 494h278l35 323h-278zM811 336h-279l-28 -268h-228l29 268h-188l14 158h191l34 323h-190l16 160h191l28 264h228l-29 -264h279l28 264h228l-29 -264h192l-18 -160h-190l-35 -323h192l-16 -158h-193l-28 -268h-228z" />
    <glyph glyph-name="dollar" unicode="$" horiz-adv-x="1411" 
d="M422 990q0 -57 33 -93q41 -35 104 -57l62 -25v330q-99 -12 -149 -55t-50 -100zM1006 358q0 116 -148 172l-65 25v-358q109 9 161 55t52 106zM1278 348q0 -139 -119 -246q-132 -114 -366 -129v-180h-172v184q-218 21 -353 131t-135 308h240q0 -99 62 -149t186 -66v397
l-103 35q-172 59 -266 139t-94 226t116 243q125 98 347 113v155h172v-157q197 -22 303 -124t133 -265h-240q-9 60 -59 110q-55 49 -137 66v-373l180 -64q151 -52 229 -133q76 -82 76 -221z" />
    <glyph glyph-name="percent" unicode="%" horiz-adv-x="1566" 
d="M1274 283q0 157 -100 157t-99 -156q0 -156 99 -157q44 0 72 37t28 119zM1174 594q116 0 198 -80t82 -230q0 -151 -81 -232t-199 -81t-200 81q-81 81 -81 232q1 150 83 230t198 80zM1118 1329h244l-899 -1329h-246zM504 1046q0 156 -100 156t-99 -156q-1 -156 99 -157
q100 1 100 157zM605 1276q81 -80 81 -229.5t-81 -230.5t-199 -81t-200 81q-81 81 -80.5 230.5t82.5 229.5t199 80t198 -80z" />
    <glyph glyph-name="ampersand" unicode="&#x26;" horiz-adv-x="1976" 
d="M1004 995q0 68 -48 107q-44 41 -131 41t-129 -45q-47 -41 -47 -105q0 -90 96 -174l48 -43q211 88 211 219zM455 393q0 -88 73 -143q74 -60 218 -60t286 91l-332 301q-245 -34 -245 -189zM1548 -29q-103 -1 -183 39t-173 123q-204 -162 -444 -162t-400 119t-160 289
q0 267 375 326l-33 30q-147 133 -147 283t122 242q123 92 323 92t327 -95q115 -89 115 -221t-86 -226q-86 -92 -258 -155l260 -235q127 151 215 375l164 -90q-86 -249 -226 -424l35 -31q72 -66 154 -66q46 0 81 36t38 116h219q-3 -165 -82 -265t-236 -100z" />
    <glyph glyph-name="quotesingle" unicode="'" horiz-adv-x="368" 
d="M305 1386l-33 -487h-178l-31 487h242z" />
    <glyph glyph-name="parenleft" unicode="(" horiz-adv-x="819" 
d="M150 652q0 514 428 892l174 -127q-178 -188 -266 -371q-88 -184 -87 -396q-1 -212 87 -393t266 -368l-174 -131q-428 380 -428 894z" />
    <glyph glyph-name="parenright" unicode=")" horiz-adv-x="819" 
d="M670 652q0 -510 -428 -894l-176 131q178 181 266 365t88 393t-88 402q-92 185 -266 368l176 127q428 -382 428 -892z" />
    <glyph glyph-name="asterisk" unicode="*" horiz-adv-x="837" 
d="M330 1081l-228 76l62 143l203 -102l-25 244h164l-25 -244l203 107l61 -146l-223 -76l176 -168l-120 -104l-152 207l-156 -207l-116 104z" />
    <glyph glyph-name="plus" unicode="+" horiz-adv-x="1114" 
d="M678 1006v-398h399v-211h-399v-397h-242v397h-399v211h399v398h242z" />
    <glyph glyph-name="comma" unicode="," horiz-adv-x="518" 
d="M100 132q0 60 46 104t130 43q82 1 134 -63t51 -157q0 -149 -135 -272q-39 -36 -97 -66l-180 91q75 38 119 77q55 43 70 101q-54 8 -96 46q-42 36 -42 96z" />
    <glyph glyph-name="hyphen" unicode="-" horiz-adv-x="763" 
d="M94 723h576v-211h-576v211z" />
    <glyph glyph-name="period" unicode="." horiz-adv-x="440" 
d="M216 305q74 -1 124 -47t49 -116t-49 -114q-48 -46 -124 -46t-121 46q-46 46 -46 114t46.5 115.5t120.5 47.5z" />
    <glyph glyph-name="slash" unicode="/" horiz-adv-x="966" 
d="M635 1526h248l-529 -1692h-245z" />
    <glyph glyph-name="zero" unicode="0" horiz-adv-x="1296" 
d="M648 1137q-144 -1 -224 -123q-78 -122 -78 -352t80 -347q76 -120 222 -120q146 -1 224 119t78 348t-78 354q-80 121 -224 121zM647 1356q119 0 225 -41q103 -45 172 -129q156 -182 156 -523t-150 -517t-403 -175q-253 0 -402 175q-149 176 -149 518t149 517t402 175z" />
    <glyph glyph-name="one" unicode="1" horiz-adv-x="731" 
d="M539 1337v-1337h-242v1049q-104 -52 -211 -52v232q150 21 270 108h183z" />
    <glyph glyph-name="two" unicode="2" horiz-adv-x="1239" 
d="M365 221h759v-221h-1001v227q0 240 170 348q66 42 133 66l272 104q87 34 133 86q41 56 41 132t-55 131q-57 51 -159 51t-168 -50t-76 -145h-269q3 192 142 299t356 107t353 -112t137 -280q0 -167 -84 -264q-77 -99 -256 -168l-277 -106q-82 -31 -115 -70q-36 -36 -36 -96
v-39z" />
    <glyph glyph-name="three" unicode="3" horiz-adv-x="1273" 
d="M1122 985q0 -213 -219 -289q122 -41 194 -122q72 -80 72 -186q0 -196 -145 -304q-146 -113 -377 -113t-385 115q-172 126 -172 332h258q6 -105 84 -164t208 -59q129 0 198 56t69 142t-63 137q-68 50 -205 50h-176v190h151q120 0 184 51t64 131t-55 133q-58 52 -174 52
q-222 0 -260 -170h-254q21 194 160 297q133 92 347 92t355 -104t141 -267z" />
    <glyph glyph-name="four" unicode="4" horiz-adv-x="1218" 
d="M731 477v508l-399 -508h399zM958 1343v-841h232v-207h-232v-295h-239v295h-674v182l680 866h233z" />
    <glyph glyph-name="five" unicode="5" horiz-adv-x="1191" 
d="M659 827q209 0 331 -100q122 -99 122 -293t-140 -328t-362 -135q-220 1 -355 113t-138 313h248q-1 -105 69 -153t181 -49q111 0 176 71q71 65 71 176q0 203 -274 203h-406l62 684h796v-221h-563l-28 -299q111 18 210 18z" />
    <glyph glyph-name="six" unicode="6" horiz-adv-x="1243" 
d="M660 195q98 0 166 57q68 56 67 152q0 96 -67 154t-166 58q-98 0 -164 -58t-66 -153t66 -155q66 -55 164 -55zM686 1137q-160 0 -256 -140q-90 -140 -90 -376q0 -87 6 -134q21 175 124 251t249 77q186 0 305 -119q119 -114 119 -302q-1 -188 -133 -306t-348 -117
q-250 -1 -408 189t-158 504t156 503t420 189q201 0 324 -106t132 -285h-258q-9 80 -57 125q-43 47 -127 47z" />
    <glyph glyph-name="seven" unicode="7" horiz-adv-x="1019" 
d="M983 1329v-231l-567 -1098h-326l608 1096h-649v233h934z" />
    <glyph glyph-name="eight" unicode="8" horiz-adv-x="1325" 
d="M928 961q0 79 -74 127t-190 49q-116 0 -192.5 -43.5t-76.5 -119.5t135 -132l154 -60q99 0 172 49q72 51 72 130zM350 379q0 -40 25 -76t67 -59q82 -49 232 -49q150 1 225 41q76 40 76 98q1 58 -37 93t-104 62l-213 80q-189 -12 -252 -118q-19 -32 -19 -72zM1178 975
q0 -100 -68 -180q-74 -81 -199 -101q174 -69 244 -145t70 -197q0 -168 -150 -274q-149 -106 -407 -107q-258 0 -413 110t-155 277q0 124 88 203q90 77 222 92q-177 85 -242 224q-23 57 -23 116q1 167 135 265t364 98t384 -107q150 -111 150 -274z" />
    <glyph glyph-name="nine" unicode="9" 
d="M358 922q0 -98 66 -154t165 -55q99 0 165 59t67 153t-65 152t-166 58t-164 -58q-68 -57 -68 -155zM600 195q311 0 311 512q0 63 -8 120q-27 -161 -129 -237t-244 -76q-185 0 -305 117q-116 119 -116 305q1 186 133 302q132 118 358 118t391 -186q164 -186 164 -484
q0 -516 -307 -666q-102 -49 -222 -49q-229 -1 -366 117t-137 305h252q3 -93 66 -145t159 -53z" />
    <glyph glyph-name="colon" unicode=":" horiz-adv-x="552" 
d="M272 625q-76 1 -122 47t-46 114t48 114q48 48 120 48t122 -46t50 -116t-48 -116t-124 -45zM272 16q-76 0 -122 46t-46 115q0 67 48 115t120 48t122 -46t50 -117q0 -69 -48 -115t-124 -46z" />
    <glyph glyph-name="semicolon" unicode=";" horiz-adv-x="630" 
d="M342 948q74 0 122 -46q50 -46 50 -116t-48 -116t-124 -45q-76 0 -122 46q-46 47 -46 115t47 115t121 47zM162 132q0 60 46 104t129 43q81 1 133 -63t52 -157q0 -149 -135 -272q-40 -37 -96 -66l-180 91q73 37 118 77q55 43 70 101q-53 8 -95 46q-42 36 -42 96z" />
    <glyph glyph-name="less" unicode="&#x3c;" horiz-adv-x="1028" 
d="M936 1079l-596 -420l596 -417l-160 -185l-684 494v219l684 494z" />
    <glyph glyph-name="equal" unicode="=" horiz-adv-x="1036" 
d="M874 836v-209h-712v209h712zM874 406v-211h-712v211h712z" />
    <glyph glyph-name="greater" unicode="&#x3e;" horiz-adv-x="1028" 
d="M252 1264l684 -494v-219l-684 -494l-160 185l594 417l-594 420z" />
    <glyph glyph-name="question" unicode="?" horiz-adv-x="1058" 
d="M484 293q76 1 124 -45t49 -114q0 -68 -49 -118q-50 -45 -124 -45q-74 1 -120 47t-47 116q0 70 48 114q43 45 119 45zM993 985q-1 -107 -53 -179t-160 -128t-135 -90q-27 -32 -36 -60t-9 -71v-60h-242v82q0 186 111 262q52 35 125 73t98 75q35 35 35 101q1 66 -51 106
q-52 41 -151 41t-158 -47q-57 -48 -66 -127h-252q9 173 131 286q122 107 340 107t346 -108q127 -108 127 -263z" />
    <glyph glyph-name="at" unicode="@" horiz-adv-x="2103" 
d="M1442 307q0 -104 71 -104q85 0 154 92q88 113 88 305q1 237 -163 388t-445 151q-338 0 -552 -208t-214 -512t203 -480q211 -187 581 -187v-198q-457 0 -748 256q-280 246 -280 634q0 196 76 365q76 170 211 293q138 122 324 188t385 66t362 -58q161 -63 270 -161
q108 -99 171 -241t63 -290q1 -148 -43 -258q-84 -211 -268 -297q-88 -39 -184 -39q-198 0 -238 138l-13 32q-38 -71 -98 -125q-64 -45 -146 -45q-152 0 -255 110t-103 271q0 210 146 359t348 149q136 0 215 -82q82 -79 82 -244v-268zM1247 573q0 142 -77.5 142t-122.5 -23
q-41 -16 -86 -61q-91 -102 -91 -234q0 -91 48 -139t122 -49q72 0 118 39t89 121v204z" />
    <glyph glyph-name="A" unicode="A" horiz-adv-x="1282" 
d="M457 469h372l-184 571zM498 1329h303l436 -1329h-256l-92 287h-494l-94 -287h-256z" />
    <glyph glyph-name="B" unicode="B" horiz-adv-x="1327" 
d="M432 768h285q107 0 163 46t56 128t-54 130t-163 48h-287v-352zM723 211q114 0 170 47q51 48 51 126t-55 124q-52 49 -166 49h-291v-346h291zM190 1329h537q223 0 342 -104q115 -95 115 -248q0 -113 -62 -193q-63 -78 -176 -112q112 -20 186 -100t74 -203
q0 -247 -243 -336q-88 -33 -234 -33h-539v1329z" />
    <glyph glyph-name="C" unicode="C" horiz-adv-x="1298" 
d="M668 1356q118 0 210 -30q263 -84 326 -376l-258 -47q-35 106 -102 170q-70 64 -170 64q-140 -1 -229 -123t-89 -348t82 -347q81 -126 224.5 -126t213.5 69t70 176h260q0 -224 -142 -346t-398 -121q-256 -1 -413 187t-157 514t159 504q159 180 413 180z" />
    <glyph glyph-name="D" unicode="D" horiz-adv-x="1404" 
d="M432 219h189q187 1 301 125t114 322t-112 320q-112 124 -303 124h-189v-891zM621 1329q303 0 490 -181q187 -182 187 -484t-187 -483t-490 -181h-433v1329h433z" />
    <glyph glyph-name="E" unicode="E" horiz-adv-x="1200" 
d="M188 1329h856v-209h-614v-350h576v-209h-576v-350h614v-211h-856v1329z" />
    <glyph glyph-name="F" unicode="F" horiz-adv-x="1120" 
d="M190 1329h838v-209h-596v-350h545v-207h-545v-563h-242v1329z" />
    <glyph glyph-name="G" unicode="G" horiz-adv-x="1386" 
d="M674 -29q-246 1 -412 191t-166 502t178 502t451 190q189 0 311 -82q129 -79 199 -254l-248 -57q-107 174 -265 174q-158 -1 -262 -131t-104 -342t94 -340t235 -129q142 0 227 85t85 234v8l-299 6v156h531v-684h-197l-26 211q-86 -240 -332 -240z" />
    <glyph glyph-name="H" unicode="H" horiz-adv-x="1445" 
d="M432 1329v-555h580v555h241v-1329h-241v563h-580v-563h-242v1329h242z" />
    <glyph glyph-name="I" unicode="I" horiz-adv-x="622" 
d="M190 1329h242v-1329h-242v1329z" />
    <glyph glyph-name="J" unicode="J" horiz-adv-x="909" 
d="M338 207q87 0 129 51q39 55 39 156v915h244v-915q0 -228 -104 -336t-276 -107q-171 0 -337 84v242q159 -90 305 -90z" />
    <glyph glyph-name="K" unicode="K" horiz-adv-x="1339" 
d="M434 1329v-547l524 547h332l-585 -598l624 -731h-313l-473 563l-109 -110v-453h-244v1329h244z" />
    <glyph glyph-name="L" unicode="L" horiz-adv-x="1011" 
d="M432 211h547v-211h-789v1329h242v-1118z" />
    <glyph glyph-name="M" unicode="M" horiz-adv-x="1789" 
d="M1599 1329v-1329h-243v1010l-377 -865h-158l-389 893v-1038h-242v1329h347l364 -790l365 790h333z" />
    <glyph glyph-name="N" unicode="N" horiz-adv-x="1468" 
d="M1036 1329h242v-1329h-246l-604 975v-975h-242v1329h265l585 -942v942z" />
    <glyph glyph-name="O" unicode="O" horiz-adv-x="1398" 
d="M698 1139q-161 1 -257 -125q-95 -126 -95 -352t96 -349t256 -123t260 121q95 128 95 351t-95 354q-99 123 -260 123zM1138 1179q165 -177 165 -515q1 -338 -163 -516t-440 -177q-276 0 -436 176q-168 179 -168 519t162 515t439 175q276 0 441 -177z" />
    <glyph glyph-name="P" unicode="P" horiz-adv-x="1189" 
d="M653 694q110 0 169 59t59 153t-58 155q-59 59 -170 59h-225v-426h225zM653 1329q229 0 353 -108t124 -315t-126 -312q-123 -111 -351 -111h-225v-483h-244v1329h469z" />
    <glyph glyph-name="Q" unicode="Q" horiz-adv-x="1404" 
d="M698 1139q-161 1 -257 -125q-95 -126 -95 -352t96 -349t256 -123t260 121q95 128 95 351t-95 354q-99 123 -260 123zM1104 -369q-197 0 -336 207l-88 133q-264 3 -424 185t-160 516t162 509t438 175t442 -177q165 -177 165 -513q0 -278 -107 -442t-287 -222l33 -51
q91 -139 344 -33v-250q-81 -37 -182 -37z" />
    <glyph glyph-name="R" unicode="R" horiz-adv-x="1318" 
d="M659 680q133 0 201 60t68 160t-62 160t-184 60h-250v-440h227zM1178 922q0 -139 -78 -239t-232 -142l357 -541h-316l-293 518h-184v-518h-242v1329h492q236 0 366 -110t130 -297z" />
    <glyph glyph-name="S" unicode="S" horiz-adv-x="1306" 
d="M373 416q0 -221 195.5 -221t265.5 42q70 43 71 113t-37 106t-129 72l-264 105q-149 58 -233 138q-84 81 -84 235t129 249q131 101 355 101t346 -104t140 -289h-239q-34 174 -246 174q-103 -1 -162 -43t-59 -102t37 -91q39 -36 119 -63l288 -113q152 -60 230 -146t78 -217
q0 -178 -135 -284t-370 -107q-235 1 -381 115t-155 330h240z" />
    <glyph glyph-name="T" unicode="T" horiz-adv-x="1089" 
d="M12 1329h1065v-209h-411v-1120h-242v1120h-412v209z" />
    <glyph glyph-name="U" unicode="U" horiz-adv-x="1413" 
d="M412 1329v-827q0 -167 84 -236q80 -71 213 -71t213 71q84 69 84 236v827h241v-827q0 -256 -141 -391q-140 -140 -398 -140t-397 140q-141 135 -141 391v827h242z" />
    <glyph glyph-name="V" unicode="V" horiz-adv-x="1243" 
d="M297 1329l324 -1026l327 1026h254l-457 -1329h-253l-451 1329h256z" />
    <glyph glyph-name="W" unicode="W" horiz-adv-x="1978" 
d="M311 1329l293 -1010l285 922h164l301 -926l311 1014h272l-456 -1329h-254l-250 750l-248 -750h-254l-434 1329h270z" />
    <glyph glyph-name="X" unicode="X" horiz-adv-x="1400" 
d="M1329 0h-303l-350 471l-311 -471h-295l469 662l-471 667h297l335 -479l291 479h293l-448 -663z" />
    <glyph glyph-name="Y" unicode="Y" horiz-adv-x="1236" 
d="M731 0h-242v549l-456 780h286l293 -530l308 530h284l-473 -780v-549z" />
    <glyph glyph-name="Z" unicode="Z" horiz-adv-x="1288" 
d="M150 1329h1005v-207l-700 -899l700 -2v-221h-1005v209l702 897l-702 2v221z" />
    <glyph glyph-name="bracketleft" unicode="[" horiz-adv-x="720" 
d="M190 1618h506v-217h-264v-1471h264v-219h-506v1907z" />
    <glyph glyph-name="backslash" unicode="\" horiz-adv-x="966" 
d="M84 1528h246l528 -1692h-248z" />
    <glyph glyph-name="bracketright" unicode="]" horiz-adv-x="688" 
d="M498 -289h-506v219h264v1471h-264v217h506v-1907z" />
    <glyph glyph-name="asciicircum" unicode="^" horiz-adv-x="1079" 
d="M41 446l405 789h197l404 -789h-267l-235 504l-238 -504h-266z" />
    <glyph glyph-name="underscore" unicode="_" horiz-adv-x="1572" 
d="M113 -113h1349v-211h-1349v211z" />
    <glyph glyph-name="grave" unicode="`" horiz-adv-x="729" 
d="M135 1843l547 -270l-61 -152l-572 213z" />
    <glyph glyph-name="a" unicode="a" horiz-adv-x="1196" 
d="M567 422q-196 0 -196 -131q0 -58 45 -94q44 -41 142 -41t167 65q65 72 68 168q-115 33 -226 33zM518 582q125 0 275 -39v98q0 105 -43 154q-40 51 -136 51t-147 -38t-51 -108h-264q0 169 118 246q122 76 336 76q309 0 398 -215q30 -73 30 -174v-633h-211l-18 133
q-93 -162 -289 -162q-196 -1 -300 91t-103 231q0 139 108 215q109 74 297 74z" />
    <glyph glyph-name="b" unicode="b" horiz-adv-x="1257" 
d="M432 559v-131q3 -102 74 -170q70 -68 166 -68t168 84q69 84 69 226t-69 221q-66 84 -169 84t-171 -68t-68 -178zM1153 500q0 -232 -132 -380t-327 -149q-195 0 -286 201l-60 -172h-158v1405h242v-535q96 152 282 152t314 -143q125 -147 125 -379z" />
    <glyph glyph-name="c" unicode="c" horiz-adv-x="1085" 
d="M569 1022q92 0 169 -33t126 -82q103 -100 121 -248l-244 -6q-15 66 -59 109t-102 43q-114 -1 -177 -79t-63 -228t66 -232q67 -76 159 -76t135 43q41 47 41 121h244q1 -164 -109 -274t-308 -109q-198 0 -335 149q-137 148 -137 384t136 377t337 141z" />
    <glyph glyph-name="d" unicode="d" horiz-adv-x="1257" 
d="M348 500q0 -142 70 -226q72 -84 168 -84t166 70t71 180v129q-3 106 -68 171t-168 65t-169 -84q-70 -79 -70 -221zM558 -29q-190 0 -322 149q-132 148 -132 382t126 377t312 143t281 -150v533h244v-1405h-199l-28 154q-92 -183 -282 -183z" />
    <glyph glyph-name="e" unicode="e" horiz-adv-x="1085" 
d="M565 829q-101 0 -159 -66t-68 -171h424q0 161 -103 217q-39 20 -94 20zM987 564q0 -74 -8 -126h-643q2 -120 58 -196t169 -76q151 0 178 131h244q-24 -151 -140 -239t-298 -87q-183 1 -317 147t-134 384t135 379t337 141t317 -145q49 -60 75 -149q26 -90 27 -164z" />
    <glyph glyph-name="f" unicode="f" horiz-adv-x="749" 
d="M82 995h147v117q0 152 86 230t217 79q84 0 207 -24l-47 -187q-58 21 -104 21q-46 1 -80 -25t-35 -96v-115h182v-161h-182v-834h-244v834h-147v161z" />
    <glyph glyph-name="g" unicode="g" horiz-adv-x="1191" 
d="M586 854q-92 0 -142 -51q-49 -55 -49 -138q-1 -83 49 -135t142 -53q92 0 143 53q45 54 45 135t-45 138q-51 51 -143 51zM268 -168q0 -70 81 -112t190 -42q183 0 278 65q94 65 94 151q1 38 -25 60t-75 23h-350q-193 -9 -193 -145zM156 666q0 156 127 260q125 96 281 96
t265 -59q12 117 100 189t204 71l-13 -232q-176 0 -182 -117q76 -94 76 -229t-126 -237q-126 -101 -302 -101q-98 0 -183 31q-81 -24 -81 -98q0 -93 155 -93h334q340 0 340 -237q0 -87 -41 -156q-36 -77 -115 -137q-167 -131 -419 -131t-398 97t-147 239q1 92 57 146t148 69
q-121 74 -121 182q0 73 45 121q48 48 116 68q-120 102 -120 258z" />
    <glyph glyph-name="h" unicode="h" horiz-adv-x="1275" 
d="M731 1022q197 0 290 -120t93 -320v-582h-242v582q0 109 -52 166t-149 57q-96 0 -167 -86q-69 -87 -72 -258v-461h-242v1405h242v-571q102 188 299 188z" />
    <glyph glyph-name="i" unicode="i" horiz-adv-x="671" 
d="M330 1176q-70 0 -109 38t-39 102q0 66 39 105q40 37 109 37t112 -37q39 -43 39 -105t-39 -104q-42 -36 -112 -36zM211 997h242v-997h-242v997z" />
    <glyph glyph-name="j" unicode="j" horiz-adv-x="686" 
d="M58 -303q88 0 128 41q39 42 39 147v1114h242v-1118q0 -216 -90 -303q-86 -92 -232 -92t-301 63l4 209q122 -61 210 -61zM195 1316q0 64 38 105q43 37 113 37t109 -37q39 -39 39 -105t-39 -102q-39 -38 -109 -38t-113 36q-38 40 -38 104z" />
    <glyph glyph-name="k" unicode="k" horiz-adv-x="1177" 
d="M432 0h-242v1405h242v-760l393 350h328l-440 -368l465 -627h-295l-340 485l-111 -92v-393z" />
    <glyph glyph-name="l" unicode="l" horiz-adv-x="622" 
d="M190 1405h242v-1405h-242v1405z" />
    <glyph glyph-name="m" unicode="m" horiz-adv-x="1943" 
d="M1540 582q0 223 -203 223q-94 -1 -157 -85t-66 -253v-467h-242v582q0 109 -52 166t-149 57q-96 0 -167 -86q-69 -87 -72 -258v-461h-242v995h211l27 -172q99 199 315 199q130 0 207 -57q85 -58 125 -158q95 215 338 215q177 0 274 -117t97 -323v-582h-244v582z" />
    <glyph glyph-name="n" unicode="n" horiz-adv-x="1275" 
d="M743 1022q185 0 278 -120t93 -320v-582h-242v582q0 109 -52 166t-149 57q-96 0 -167 -86q-69 -87 -72 -258v-461h-242v995h211l27 -172q99 199 315 199z" />
    <glyph glyph-name="o" unicode="o" horiz-adv-x="1159" 
d="M590 813q-108 0 -180 -78q-70 -77 -70 -237t63 -238t171 -78t177 78q70 78 70 237q1 160 -61 238t-170 78zM582 1022q97 0 188 -31q88 -35 152 -98q141 -143 141 -395t-141 -396q-125 -131 -339 -131q-215 1 -351 137t-136 390t136 388q136 136 350 136z" />
    <glyph glyph-name="p" unicode="p" 
d="M655 190q37 0 87 20t85 56q82 85 82 229t-69 228q-74 82 -174 82q-100 1 -166 -59t-68 -166v-179q0 -95 66 -153t157 -58zM694 1022q188 0 323 -144q136 -144 136 -382q1 -238 -137 -382t-320 -143q-182 0 -264 109v-565h-242v1480h199l23 -135q94 162 282 162z" />
    <glyph glyph-name="q" unicode="q" 
d="M584 805q-101 0 -174 -82q-70 -86 -70 -229q0 -144 76 -224t170 -80t160 56t69 145v178q0 112 -65 174t-166 62zM556 -29q-184 0 -322 144q-138 143 -138 381t134 382t327 144q194 0 291 -180l53 153h158v-1149q0 -91 22 -116q28 -43 113 -68l-70 -176q-162 39 -239 131
q-70 92 -70 248v264q-75 -158 -259 -158z" />
    <glyph glyph-name="r" unicode="r" horiz-adv-x="851" 
d="M702 1014q36 0 89 -15l-5 -241q-58 12 -112 12q-242 0 -242 -334v-436h-242v997h242v-198q89 215 270 215z" />
    <glyph glyph-name="s" unicode="s" horiz-adv-x="1079" 
d="M532 162q81 0 127 35q52 30 52 76t-30 70t-97 46l-217 78q-242 82 -242 274q0 124 113 205q121 76 308 76t292 -84t108 -211h-227q-3 51 -49 79t-122 28q-77 0 -122 -32t-45 -73q0 -71 121 -106l235 -88q118 -41 180 -100t62 -156q0 -125 -117 -213q-122 -95 -320 -95
t-319 86q-120 88 -123 246h226q3 -141 206 -141z" />
    <glyph glyph-name="t" unicode="t" horiz-adv-x="808" 
d="M540 -29q-150 0 -241 74q-94 82 -94 231v558h-139v161h139v262h241v-262h271v-161h-271v-549q0 -123 117 -123q64 0 154 33l35 -170q-138 -54 -212 -54z" />
    <glyph glyph-name="u" unicode="u" horiz-adv-x="1284" 
d="M549 -18q-265 0 -348 206q-31 73 -31 174v635h242v-610q0 -98 46 -146t118 -48q132 0 202 83q71 83 74 230v491h242v-997h-242v180q-94 -198 -303 -198z" />
    <glyph glyph-name="v" unicode="v" horiz-adv-x="1062" 
d="M303 995l227 -755l230 755h278l-370 -995h-273l-370 995h278z" />
    <glyph glyph-name="w" unicode="w" horiz-adv-x="1552" 
d="M279 995l200 -710l191 655h219l190 -657l203 712h242l-328 -995h-238l-184 596l-180 -596h-240l-329 995h254z" />
    <glyph glyph-name="x" unicode="x" horiz-adv-x="1134" 
d="M1100 0h-295l-246 319l-229 -319h-297l387 496l-387 501h297l243 -319l232 319h295l-385 -501z" />
    <glyph glyph-name="y" unicode="y" horiz-adv-x="1032" 
d="M264 -514q-132 0 -264 65v213q106 -67 198 -67t134 57q49 58 76 150l30 96l-399 995h274l240 -716l209 716h246l-381 -1175q-58 -176 -144 -256q-87 -78 -219 -78z" />
    <glyph glyph-name="z" unicode="z" horiz-adv-x="1013" 
d="M117 799v196h782v-196l-500 -602h500v-197h-782v197l516 602h-516z" />
    <glyph glyph-name="braceleft" unicode="{" horiz-adv-x="800" 
d="M793 -319q-269 0 -399 137t-130 379v186q0 89 -14 117q-11 32 -53 32h-52v244h52q41 0 54 32t13 118v188q0 367 289 475q98 39 240 39v-219q-152 0 -220 -74q-69 -69 -69 -225v-197q0 -97 -40 -163t-95 -91v-10q57 -26 96 -91t39 -163v-196q0 -155 68 -227t221 -72v-219z
" />
    <glyph glyph-name="bar" unicode="|" horiz-adv-x="622" 
d="M190 1579h242v-1829h-242v1829z" />
    <glyph glyph-name="braceright" unicode="}" horiz-adv-x="800" 
d="M8 -100q150 0 221 71q68 74 68 228v196q1 99 39 163t96 91v10q-57 27 -96 91t-39 163v197q1 154 -69 226t-220 73v219q267 0 406 -145q123 -132 123 -369v-188q0 -84 12 -119q15 -31 55 -31h51v-244h-51q-41 0 -54 -31t-13 -118v-186q0 -369 -289 -480q-98 -36 -240 -36
v219z" />
    <glyph glyph-name="asciitilde" unicode="~" horiz-adv-x="1167" 
d="M377 543q-79 0 -131 -125l-129 69q35 137 97 212t165 75q69 0 213 -55t194 -55q84 0 134 114l131 -84q-82 -260 -283 -260q-69 0 -209 58q-143 51 -182 51z" />
  </font>
</defs>
</svg>
